<svg width="100" height="93" viewBox="0 0 100 93" fill="none" xmlns="http://www.w3.org/2000/svg">
<rect width="100" height="89" rx="44.5" fill="#D4FFD3"/>
<path d="M49.687 83.3347C72.1585 83.3347 90.374 66.2472 90.374 45.1674C90.374 24.0875 72.1585 7 49.687 7C27.2156 7 9 24.0875 9 45.1674C9 66.2472 27.2156 83.3347 49.687 83.3347Z" stroke="#016D01" stroke-width="4" stroke-linecap="round" stroke-linejoin="round"/>
<path d="M37.652 44.428H46.544V57.028C45.152 57.484 43.748 57.82 42.332 58.036C40.916 58.252 39.308 58.36 37.508 58.36C34.844 58.36 32.6 57.832 30.776 56.776C28.952 55.696 27.56 54.172 26.6 52.204C25.664 50.212 25.196 47.86 25.196 45.148C25.196 42.46 25.724 40.132 26.78 38.164C27.836 36.196 29.348 34.672 31.316 33.592C33.308 32.488 35.708 31.936 38.516 31.936C39.956 31.936 41.312 32.068 42.584 32.332C43.88 32.596 45.08 32.968 46.184 33.448L44.96 36.256C44.048 35.848 43.016 35.5 41.864 35.212C40.736 34.924 39.56 34.78 38.336 34.78C36.296 34.78 34.544 35.2 33.08 36.04C31.616 36.88 30.5 38.08 29.732 39.64C28.964 41.176 28.58 43.012 28.58 45.148C28.58 47.188 28.904 49 29.552 50.584C30.224 52.144 31.268 53.368 32.684 54.256C34.1 55.12 35.96 55.552 38.264 55.552C39.032 55.552 39.704 55.528 40.28 55.48C40.88 55.408 41.42 55.324 41.9 55.228C42.404 55.132 42.872 55.036 43.304 54.94V47.308H37.652V44.428ZM63.6994 34.78C62.3314 34.78 61.0954 35.02 59.9914 35.5C58.8874 35.956 57.9514 36.64 57.1834 37.552C56.4154 38.44 55.8274 39.532 55.4194 40.828C55.0114 42.1 54.8074 43.54 54.8074 45.148C54.8074 47.26 55.1314 49.096 55.7794 50.656C56.4514 52.216 57.4354 53.416 58.7314 54.256C60.0514 55.096 61.6954 55.516 63.6634 55.516C64.7914 55.516 65.8594 55.42 66.8674 55.228C67.8754 55.036 68.8594 54.796 69.8194 54.508V57.316C68.8594 57.676 67.8634 57.94 66.8314 58.108C65.8234 58.276 64.6114 58.36 63.1954 58.36C60.5794 58.36 58.3954 57.82 56.6434 56.74C54.8914 55.66 53.5714 54.124 52.6834 52.132C51.8194 50.14 51.3874 47.8 51.3874 45.112C51.3874 43.168 51.6514 41.392 52.1794 39.784C52.7314 38.176 53.5234 36.784 54.5554 35.608C55.6114 34.432 56.9074 33.532 58.4434 32.908C59.9794 32.26 61.7434 31.936 63.7354 31.936C65.0554 31.936 66.3274 32.068 67.5514 32.332C68.7754 32.596 69.8674 32.968 70.8274 33.448L69.5314 36.184C68.7394 35.824 67.8514 35.5 66.8674 35.212C65.9074 34.924 64.8514 34.78 63.6994 34.78Z" fill="#016D01"/>
</svg>
